<svg xmlns="http://www.w3.org/2000/svg" xmlns:xlink="http://www.w3.org/1999/xlink" xmlns:lucid="lucid" width="1744.43" height="1356.36"><g transform="translate(-65.64590300360257 -33.973723398055014)" lucid:page-tab-id="0_0"><path d="M85.65 230.33c0-4.4 3.58-8 8-8h174.07c4.42 0 8 3.6 8 8v104c0 4.42-3.58 8-8 8H93.65c-4.42 0-8-3.58-8-8z" stroke="#000" stroke-opacity="0" fill="#e25c18"/><use xlink:href="#a" transform="matrix(1,0,0,1,85.64590300360257,222.3344480576411) translate(46.691358024691354 64.94444444444444)"/><use xlink:href="#b" transform="matrix(1,0,0,1,85.64590300360257,222.3344480576411) translate(94.1358024691358 64.94444444444444)"/><path d="M180.57 342.33l-1.88 982.55" fill="none"/><path d="M180.57 342.33v4.97m-.02 4.96l-.02 9.92m0 4.97l-.03 9.92m0 4.96l-.03 9.93m0 4.96l-.02 9.92m0 4.97l-.03 9.93m0 4.96l-.03 9.92m-.02 4.96l-.02 9.93m0 4.97l-.03 9.92m0 4.96l-.03 9.92m0 4.96l-.03 9.93m0 4.96l-.02 9.92m0 4.97l-.03 9.92m0 4.96l-.03 9.93m-.02 4.96l-.02 9.92m0 4.96l-.03 9.92m0 4.96l-.03 9.93m0 4.95l-.02 9.93m0 4.96l-.03 9.92m0 4.97l-.03 9.92m0 4.96l-.03 9.94m-.02 4.96l-.02 9.92m0 4.97l-.03 9.9m0 4.97l-.03 9.93m0 4.96l-.02 9.93m0 4.95l-.03 9.92m0 4.96l-.03 9.93m0 4.96l-.03 9.93m-.02 4.96l-.02 9.93m0 4.97l-.03 9.92m0 4.96l-.02 9.93m0 4.97l-.02 9.92m0 4.96l-.03 9.92m0 4.96l-.03 9.93m0 4.96l-.03 9.93m-.02 4.96l-.02 9.92m0 4.97l-.03 9.93m0 4.96l-.02 9.92m0 4.96l-.02 9.92m0 4.97l-.03 9.92m0 4.95l-.03 9.93m0 4.96l-.03 9.93m-.02 4.96l-.02 9.92m0 4.96l-.02 9.94m0 4.96l-.03 9.93m0 4.96l-.02 9.9m0 4.98l-.03 9.92m0 4.96l-.03 9.93m0 4.95l-.03 9.92m-.02 4.97l-.02 9.92m0 4.96l-.02 9.93m0 4.96l-.03 9.94m0 4.96l-.02 9.92m0 4.96l-.03 9.93m0 4.97l-.03 9.93m0 4.96l-.03 9.92m-.02 4.97v9.92m-.02 4.96l-.02 9.93m0 4.96l-.03 9.92m0 4.97l-.02 9.93m0 4.96l-.03 9.92m0 4.96l-.03 9.93m0 4.97l-.03 9.92m0 4.96l-.03 9.92m0 4.96l-.03 9.93m0 4.96l-.03 9.92m0 4.97v4.96" stroke="#666" fill="none"/><path d="M181.07 342.34h-.5.5z" fill="#666"/><path d="M178.7 1324.88l-.02 3" stroke="#666" fill="none"/><path d="M159.75 420.06c0-4.42 3.6-8 8-8h24c4.42 0 8 3.58 8 8v824c0 4.42-3.58 8-8 8h-24c-4.4 0-8-3.58-8-8z" stroke="#f2f2f2" fill="#ccc"/><path d="M584.6 230.33c0-4.4 3.58-8 8-8h174.07c4.42 0 8 3.6 8 8v104c0 4.42-3.58 8-8 8H592.6c-4.42 0-8-3.58-8-8z" stroke="#000" stroke-opacity="0" fill="#fe9828"/><use xlink:href="#c" transform="matrix(1,0,0,1,584.5934030944505,222.3344480576411) translate(22.73148148148148 64.94444444444444)"/><use xlink:href="#d" transform="matrix(1,0,0,1,584.5934030944505,222.3344480576411) translate(63.26234567901235 64.94444444444444)"/><path d="M947.17 230.33c0-4.4 3.58-8 8-8h174.07c4.42 0 8 3.6 8 8v104c0 4.42-3.58 8-8 8H955.17c-4.42 0-8-3.58-8-8z" stroke="#000" stroke-opacity="0" fill="#ffbc44"/><use xlink:href="#e" transform="matrix(1,0,0,1,947.1692857921554,222.3344480576411) translate(6.03086419753086 64.94444444444444)"/><use xlink:href="#f" transform="matrix(1,0,0,1,947.1692857921554,222.3344480576411) translate(64.3641975308642 64.94444444444444)"/><path d="M679.63 342.33v1020" fill="none"/><path d="M679.63 342.33v5m0 5v10m0 5v10m0 5v10m0 5v10m0 5v10m0 5v10m0 5v10m0 5v10m0 5v10m0 5v10m0 5v10m0 5v10m0 5v10m0 5v10m0 5v10m0 5v10m0 5v10m0 5v10m0 5v10m0 5v10m0 5v10m0 5v10m0 5v10m0 5v10m0 5v10m0 5v10m0 5v10m0 5v10m0 5v10m0 5v10m0 5v10m0 5v10m0 5v10m0 5v10m0 5v10m0 5v10m0 5v10m0 5v10m0 5v10m0 5v10m0 5v10m0 5v10m0 5v10m0 5v10m0 5v10m0 5v10m0 5v10m0 5v10m0 5v10m0 5v10m0 5v10m0 5v10m0 5v10m0 5v10m0 5v10m0 5v10m0 5v10m0 5v10m0 5v10m0 5v10m0 5v10m0 5v10m0 5v10m0 5v10m0 5v10m0 5v10m0 5v10m0 5v5" stroke="#666" fill="none"/><path fill="#666"/><path d="M135.4 1298.33c0-4.4 3.57-8 8-8h70.57c4.42 0 8 3.6 8 8v64c0 4.42-3.58 8-8 8H143.4c-4.43 0-8-3.58-8-8z" fill="none"/><path d="M144.05 1298.33l69.26 64m0-64l-69.25 64" stroke="#666" stroke-width="8" fill="none"/><path d="M655.87 448c0-4.42 3.58-8 8-8h24c4.42 0 8 3.58 8 8v795.73c0 4.42-3.58 8-8 8h-24c-4.42 0-8-3.58-8-8z" stroke="#f2f2f2" fill="#ccc"/><path d="M199.75 482.06H427.4c.1 0 .16-.07.16-.16 0-.1.08-.17.17-.17h211.02" stroke="#999" fill="none"/><path fill="#999"/><path d="M653.75 481.73l-14.26 4.63v-9.27z" fill="#999"/><path d="M655.37 481.73L639 487.05V476.4zM640 485.68l12.14-3.95-12.15-3.95z" fill="#999"/><use xlink:href="#g" transform="matrix(1,0,0,1,378.8569420504369,459.0630173800353) translate(0 12.444444444444446)"/><use xlink:href="#h" transform="matrix(1,0,0,1,378.8569420504369,459.0630173800353) translate(41.351851851851855 12.444444444444446)"/><path d="M679.63 508c0-4.42 3.58-8 8-8h24c4.42 0 8 3.58 8 8v64c0 4.42-3.58 8-8 8h-24c-4.42 0-8-3.58-8-8z" stroke="#ccc" fill="#fff"/><path d="M853.1 481.83l3 1.24 2.6 2 2 2.6 1.25 3 .42 3.2v34.16l-.42 3.2-1.24 3-2 2.6-2.6 2-3 1.25-3.2.42H736.75v-1h113.1l3-.4 2.76-1.14 2.4-1.83 1.83-2.4 1.14-2.75.4-3v-34.04l-.4-3.02-1.14-2.75-1.83-2.4-2.4-1.83-2.75-1.14-3-.4H696.36v-1H849.9z" fill="#666"/><path d="M696.37 482.4h-.5v-1h.5zM736 544.64L721.76 540l14.26-4.64z" fill="#666"/><path d="M736.5 545.32L720.14 540l16.38-5.32zM723.38 540l12.14 3.95v-7.9z" fill="#666"/><use xlink:href="#i" transform="matrix(1,0,0,1,869.8693137589432,489.74020594015474) translate(0 12.444444444444446)"/><use xlink:href="#j" transform="matrix(1,0,0,1,869.8693137589432,489.74020594015474) translate(63 12.444444444444446)"/><use xlink:href="#k" transform="matrix(1,0,0,1,861.8693137589432,489.7402059401547) translate(0 12.444444444444446)"/><path d="M679.63 710.33c0-4.4 3.58-8 8-8h24c4.42 0 8 3.6 8 8v504c0 4.42-3.58 8-8 8h-24c-4.42 0-8-3.58-8-8z" stroke="#ccc" fill="#fff"/><path d="M696.37 602.38h309.65" stroke="#666" fill="none"/><path d="M696.37 602.88h-.5v-1h.5zM1021.02 602.38l-14.27 4.64v-9.27z" fill="#666"/><path d="M1022.64 602.38l-16.4 5.33v-10.64zm-15.4 3.95l12.16-3.95-12.15-3.94z" fill="#666"/><use xlink:href="#l" transform="matrix(1,0,0,1,805.6647705327964,579.716437474842) translate(0 12.444444444444446)"/><path d="M1042.2 342.33v1020" fill="none"/><path d="M1042.2 342.33v5m0 5v10m0 5v10m0 5v10m0 5v10m0 5v10m0 5v10m0 5v10m0 5v10m0 5v10m0 5v10m0 5v10m0 5v10m0 5v10m0 5v10m0 5v10m0 5v10m0 5v10m0 5v10m0 5v10m0 5v10m0 5v10m0 5v10m0 5v10m0 5v10m0 5v10m0 5v10m0 5v10m0 5v10m0 5v10m0 5v10m0 5v10m0 5v10m0 5v10m0 5v10m0 5v10m0 5v10m0 5v10m0 5v10m0 5v10m0 5v10m0 5v10m0 5v10m0 5v10m0 5v10m0 5v10m0 5v10m0 5v10m0 5v10m0 5v10m0 5v10m0 5v10m0 5v10m0 5v10m0 5v10m0 5v10m0 5v10m0 5v10m0 5v10m0 5v10m0 5v10m0 5v10m0 5v10m0 5v10m0 5v10m0 5v10m0 5v10m0 5v10m0 5v5" stroke="#666" fill="none"/><path fill="#666"/><path d="M1018.45 828c0-4.42 3.58-8 8-8h24c4.42 0 8 3.58 8 8v104c0 4.42-3.58 8-8 8h-24c-4.42 0-8-3.58-8-8z" stroke="#f2f2f2" fill="#ccc"/><path d="M1600 1170.33c0-4.4 3.58-8 8-8h174.08c4.4 0 8 3.6 8 8v44c0 4.42-3.6 8-8 8H1608c-4.42 0-8-3.58-8-8z" stroke="#000" stroke-opacity="0" fill="#ffefb8"/><use xlink:href="#m" transform="matrix(1,0,0,1,1600,1162.334448057641) translate(34.873456790123456 34.94444444444444)"/><use xlink:href="#n" transform="matrix(1,0,0,1,1600,1162.334448057641) translate(72.85493827160494 34.94444444444444)"/><use xlink:href="#o" transform="matrix(1,0,0,1,1600,1162.334448057641) translate(110.62037037037037 34.94444444444444)"/><path d="M665.56 58.97c0-2.76 2.24-5 5-5h541.64c2.76 0 5 2.24 5 5v87.13c0 2.77-2.24 5-5 5H670.56c-2.76 0-5-2.23-5-5z" stroke="#000" stroke-opacity="0" fill="#fff" fill-opacity="0"/><use xlink:href="#p" transform="matrix(1,0,0,1,665.5639153256708,53.973723398055014) translate(184.62962962962962 55.020833333333336)"/><use xlink:href="#q" transform="matrix(1,0,0,1,665.5639153256708,53.973723398055014) translate(296.9259259259259 55.020833333333336)"/><path d="M747.1 124.23h404.8M747.1 124.23h-3M1151.9 124.23h3" stroke="#b2b2b2" fill="none"/><path d="M740 130.2c0-2.76 2.24-5 5-5h390c2.76 0 5 2.24 5 5V155c0 2.76-2.24 5-5 5H745c-2.76 0-5-2.24-5-5z" stroke="#000" stroke-opacity="0" fill="#fff" fill-opacity="0"/><use xlink:href="#r" transform="matrix(1,0,0,1,740,125.20031890890564) translate(74.51851851851853 21.194444444444446)"/><use xlink:href="#s" transform="matrix(1,0,0,1,740,125.20031890890564) translate(130.60493827160496 21.194444444444446)"/><use xlink:href="#t" transform="matrix(1,0,0,1,740,125.20031890890564) translate(185.0493827160494 21.194444444444446)"/><use xlink:href="#u" transform="matrix(1,0,0,1,740,125.20031890890564) translate(197.70987654320987 21.194444444444446)"/><use xlink:href="#v" transform="matrix(1,0,0,1,740,125.20031890890564) translate(273.6296296296296 21.194444444444446)"/><use xlink:href="#w" transform="matrix(1,0,0,1,740,125.20031890890564) translate(290.91358024691357 21.194444444444446)"/><path d="M1023.14 528c0-4.42 3.58-8 8-8h24c4.42 0 8 3.58 8 8v104c0 4.42-3.58 8-8 8h-24c-4.42 0-8-3.58-8-8z" stroke="#f2f2f2" fill="#ccc"/><path d="M947.17 230.33c0-4.4 3.58-8 8-8h174.07c4.42 0 8 3.6 8 8v104c0 4.42-3.58 8-8 8H955.17c-4.42 0-8-3.58-8-8z" stroke="#000" stroke-opacity="0" fill="#ffbc44"/><use xlink:href="#e" transform="matrix(1,0,0,1,947.1692857921554,222.3344480576411) translate(6.03086419753086 64.94444444444444)"/><use xlink:href="#f" transform="matrix(1,0,0,1,947.1692857921554,222.3344480576411) translate(64.3641975308642 64.94444444444444)"/><path d="M1337.23 228c0-4.42 3.58-8 8-8h174.07c4.42 0 8 3.58 8 8v104c0 4.42-3.58 8-8 8h-174.07c-4.42 0-8-3.58-8-8z" stroke="#000" stroke-opacity="0" fill="#ffbc44"/><use xlink:href="#x" transform="matrix(1,0,0,1,1337.2250698216826,220) translate(31.891975308641975 64.94444444444444)"/><use xlink:href="#y" transform="matrix(1,0,0,1,1337.2250698216826,220) translate(77.00308641975309 64.94444444444444)"/><path d="M1441.05 340v1029.4" fill="none"/><path d="M1441.05 340v5.05m0 5.04v10.08m0 5.05v10.1m0 5.04v10.1m0 5.04v10.1m0 5.04v10.1m0 5.04v10.1m0 5.04v10.1m0 5.04v10.1m0 5.04v10.1m0 5.04v10.1m0 5.03v10.1m0 5.04v10.1m0 5.05v10.1m0 5.04v10.08m0 5.05v10.1m0 5.03v10.1m0 5.04v10.1m0 5.04v10.1m0 5.04v10.1m0 5.04v10.1m0 5.04v10.1m0 5.03v10.1m0 5.03v10.1m0 5.04v10.1m0 5.04v10.1m0 5.05v10.1m0 5.03v10.1m0 5.04v10.1m0 5.04v10.1m0 5.04v10.1m0 5.04v10.1m0 5.03v10.1m0 5.04v10.1m0 5.05v10.09m0 5.05v10.08m0 5.05v10.1m0 5.04v10.1m0 5.03v10.1m0 5.04v10.1m0 5.04v10.1m0 5.04v10.1m0 5.04v10.1m0 5.03V996m0 5.03v10.1m0 5.04v10.1m0 5.04v10.1m0 5.05v10.1m0 5.04v10.08m0 5.04v10.1m0 5.04v10.1m0 5.04v10.1m0 5.04v10.1m0 5.04v10.1m0 5.03v10.1m0 5.05v10.1m0 5.04v10.08m0 5.05v10.1m0 5.04v10.1m0 5.04v10.1m0 5.04v10.1m0 5.04v10.1m0 5.04v10.1m0 5.04v10.1m0 5.04v10.1m0 5.03v10.1m0 5.04v10.1m0 5.04v10.1m0 5.05v5.04" stroke="#666" fill="none"/><path fill="#666"/><path d="M1114.87 600.45l3 1.24 2.6 2 2 2.6 1.24 3 .43 3.2v78.3l-.42 3.2-1.24 3-2 2.6-2.6 2-3 1.25-3.2.42h-31.4v-1h31.34l3-.4 2.77-1.14 2.4-1.83 1.82-2.4 1.13-2.75.4-3.02v-78.17l-.4-3-1.14-2.77-1.84-2.4-2.4-1.83-2.75-1.15-3-.4h-47.96v-1h48.02zM1063.64 601.03h-.5v-1h.5z" fill="#666"/><path d="M1079.52 707.4l-14.27-4.63 14.27-4.64z" fill="#666"/><path d="M1080.02 708.1l-16.38-5.33 16.38-5.33zm-13.15-5.33l12.15 3.94v-7.88z" fill="#666"/><use xlink:href="#z" transform="matrix(1,0,0,1,1131.628382606857,642.3150328020542) translate(0 12.444444444444446)"/><use xlink:href="#A" transform="matrix(1,0,0,1,1131.628382606857,642.3150328020542) translate(65.50617283950618 12.444444444444446)"/><use xlink:href="#k" transform="matrix(1,0,0,1,1123.628382606857,642.3150328020542) translate(0 12.444444444444446)"/><path d="M1023.14 668c0-4.42 3.58-8 8-8h24c4.42 0 8 3.58 8 8v64c0 4.42-3.58 8-8 8h-24c-4.42 0-8-3.58-8-8z" stroke="#ccc" fill="#fff"/><path d="M1058.95 860h344.98" stroke="#666" fill="none"/><path d="M1058.95 860.5h-.5v-1h.5zM1418.93 860l-14.26 4.64v-9.28z" fill="#666"/><path d="M1420.55 860l-16.38 5.32v-10.64zm-15.38 3.95l12.15-3.95-12.15-3.95z" fill="#666"/><g><use xlink:href="#B" transform="matrix(1,0,0,1,1180.7956777814118,837.3333333333333) translate(0 12.444444444444446)"/><use xlink:href="#C" transform="matrix(1,0,0,1,1180.7956777814118,837.3333333333333) translate(42.25925925925926 12.444444444444446)"/></g><path d="M1421.05 825.67c0-4.42 3.58-8 8-8h24c4.42 0 8 3.58 8 8v104c0 4.4-3.58 8-8 8h-24c-4.42 0-8-3.6-8-8z" stroke="#f2f2f2" fill="#ccc"/><path d="M1017.95 910.06H721.1" stroke="#666" fill="none"/><path d="M1018.45 910.56h-.5v-1h.5zM738.58 900.3l-16.48 9.76 16.48 9.75-.5.87-17.95-10.6 17.94-10.62z" fill="#666"/><g><use xlink:href="#k" transform="matrix(1,0,0,1,869.0392611251109,914.0618588722484) translate(0 12.444444444444446)"/></g><path d="M1416.02 1145.67c0-4.42 3.58-8 8-8h24c4.42 0 8 3.58 8 8v104c0 4.4-3.58 8-8 8h-24c-4.42 0-8-3.6-8-8z" stroke="#f2f2f2" fill="#ccc"/><path d="M1058.95 860h344.98" stroke="#666" fill="none"/><path d="M1418.93 860l-14.26 4.64v-9.28z" stroke="#666" fill="#666"/><g><use xlink:href="#B" transform="matrix(1,0,0,1,1180.7956777814118,837.3333333333333) translate(0 12.444444444444446)"/><use xlink:href="#C" transform="matrix(1,0,0,1,1180.7956777814118,837.3333333333333) translate(42.25925925925926 12.444444444444446)"/></g><path d="M1456.52 1201.18h126.86" stroke="#666" fill="none"/><path d="M1456.52 1201.68h-.5v-1h.5zM1598.38 1201.18l-14.26 4.64v-9.27z" fill="#666"/><path d="M1600 1201.18l-16.38 5.33v-10.64zm-15.38 3.95l12.14-3.95-12.14-3.94z" fill="#666"/><g><use xlink:href="#B" transform="matrix(1,0,0,1,1473.6692664772531,1178.5171229588593) translate(0 12.444444444444446)"/><use xlink:href="#C" transform="matrix(1,0,0,1,1473.6692664772531,1178.5171229588593) translate(42.25925925925926 12.444444444444446)"/></g><defs><path fill="#fff" d="M238-95c0 69-44 99-111 99C63 4 22-25 22-93v-155h51v151c-1 38 19 59 55 60 90 1 49-130 58-211h52v153" id="D"/><path fill="#fff" d="M169-182c-1-43-94-46-97-3 18 66 151 10 154 114 3 95-165 93-204 36-6-8-10-19-12-30l50-8c3 46 112 56 116 5-17-69-150-10-154-114-4-87 153-88 188-35 5 8 8 18 10 28" id="E"/><path fill="#fff" d="M24 0v-248h195v40H76v63h132v40H76v65h150V0H24" id="F"/><path fill="#fff" d="M240-174c0 40-23 61-54 70L253 0h-59l-57-94H76V0H24v-248c93 4 217-23 216 74zM76-134c48-2 112 12 112-38 0-48-66-32-112-35v73" id="G"/><g id="a"><use transform="matrix(0.04320987654320988,0,0,0.04320987654320988,0,0)" xlink:href="#D"/><use transform="matrix(0.04320987654320988,0,0,0.04320987654320988,11.19135802469136,0)" xlink:href="#E"/><use transform="matrix(0.04320987654320988,0,0,0.04320987654320988,21.56172839506173,0)" xlink:href="#F"/><use transform="matrix(0.04320987654320988,0,0,0.04320987654320988,31.9320987654321,0)" xlink:href="#G"/></g><path fill="#fff" d="M24 0v-248h52v208h133V0H24" id="H"/><path fill="#fff" d="M140-251c80 0 125 45 125 126S219 4 139 4C58 4 15-44 15-125s44-126 125-126zm-1 214c52 0 73-35 73-88 0-50-21-86-72-86-52 0-73 35-73 86s22 88 72 88" id="I"/><path fill="#fff" d="M67-125c0 54 23 88 75 88 28 0 53-7 68-21v-34h-60v-39h108v91C232-14 192 4 140 4 58 4 20-42 15-125 8-236 126-280 215-234c19 10 29 26 37 47l-47 15c-11-23-29-39-63-39-53 1-75 33-75 86" id="J"/><path fill="#fff" d="M24 0v-248h52V0H24" id="K"/><path fill="#fff" d="M175 0L67-191c6 58 2 128 3 191H24v-248h59L193-55c-6-58-2-129-3-193h46V0h-61" id="L"/><g id="b"><use transform="matrix(0.04320987654320988,0,0,0.04320987654320988,0,0)" xlink:href="#H"/><use transform="matrix(0.04320987654320988,0,0,0.04320987654320988,9.462962962962964,0)" xlink:href="#I"/><use transform="matrix(0.04320987654320988,0,0,0.04320987654320988,21.561728395061728,0)" xlink:href="#J"/><use transform="matrix(0.04320987654320988,0,0,0.04320987654320988,33.660493827160494,0)" xlink:href="#K"/><use transform="matrix(0.04320987654320988,0,0,0.04320987654320988,37.98148148148148,0)" xlink:href="#L"/></g><path fill="#fff" d="M275 0h-61l-44-196L126 0H64L0-248h53L97-49l45-199h58l43 199 44-199h52" id="M"/><path fill="#fff" d="M182-130c37 4 62 22 62 59C244 23 116-4 24 0v-248c84 5 203-23 205 63 0 31-19 50-47 55zM76-148c40-3 101 13 101-30 0-44-60-28-101-31v61zm0 110c48-3 116 14 116-37 0-48-69-32-116-35v72" id="N"/><g id="c"><use transform="matrix(0.04320987654320988,0,0,0.04320987654320988,0,0)" xlink:href="#M"/><use transform="matrix(0.04320987654320988,0,0,0.04320987654320988,14.648148148148149,0)" xlink:href="#F"/><use transform="matrix(0.04320987654320988,0,0,0.04320987654320988,25.018518518518523,0)" xlink:href="#N"/></g><path fill="#fff" d="M199 0l-22-63H83L61 0H9l90-248h61L250 0h-51zm-33-102l-36-108c-10 38-24 72-36 108h72" id="O"/><path fill="#fff" d="M24-248c93 1 206-16 204 79-1 75-69 88-152 82V0H24v-248zm52 121c47 0 100 7 100-41 0-47-54-39-100-39v80" id="P"/><path fill="#fff" d="M67-125c0 53 21 87 73 88 37 1 54-22 65-47l45 17C233-25 199 4 140 4 58 4 20-42 15-125 8-235 124-281 211-232c18 10 29 29 36 50l-46 12c-8-25-30-41-62-41-52 0-71 34-72 86" id="Q"/><path fill="#fff" d="M136-208V0H84v-208H4v-40h212v40h-80" id="R"/><g id="d"><use transform="matrix(0.04320987654320988,0,0,0.04320987654320988,0,0)" xlink:href="#O"/><use transform="matrix(0.04320987654320988,0,0,0.04320987654320988,11.19135802469136,0)" xlink:href="#P"/><use transform="matrix(0.04320987654320988,0,0,0.04320987654320988,21.56172839506173,0)" xlink:href="#P"/><use transform="matrix(0.04320987654320988,0,0,0.04320987654320988,31.9320987654321,0)" xlink:href="#H"/><use transform="matrix(0.04320987654320988,0,0,0.04320987654320988,41.39506172839506,0)" xlink:href="#K"/><use transform="matrix(0.04320987654320988,0,0,0.04320987654320988,45.71604938271605,0)" xlink:href="#Q"/><use transform="matrix(0.04320987654320988,0,0,0.04320987654320988,56.90740740740741,0)" xlink:href="#O"/><use transform="matrix(0.04320987654320988,0,0,0.04320987654320988,66.9320987654321,0)" xlink:href="#R"/><use transform="matrix(0.04320987654320988,0,0,0.04320987654320988,76.39506172839506,0)" xlink:href="#K"/><use transform="matrix(0.04320987654320988,0,0,0.04320987654320988,80.71604938271605,0)" xlink:href="#I"/><use transform="matrix(0.04320987654320988,0,0,0.04320987654320988,92.81481481481481,0)" xlink:href="#L"/></g><path fill="#fff" d="M195 0l-88-114-31 24V0H24v-248h52v113l112-113h60L142-143 257 0h-62" id="S"/><g id="e"><use transform="matrix(0.04320987654320988,0,0,0.04320987654320988,0,0)" xlink:href="#R"/><use transform="matrix(0.04320987654320988,0,0,0.04320987654320988,9.160493827160494,0)" xlink:href="#I"/><use transform="matrix(0.04320987654320988,0,0,0.04320987654320988,21.25925925925926,0)" xlink:href="#S"/><use transform="matrix(0.04320987654320988,0,0,0.04320987654320988,32.45061728395062,0)" xlink:href="#F"/><use transform="matrix(0.04320987654320988,0,0,0.04320987654320988,42.820987654320994,0)" xlink:href="#L"/></g><path fill="#fff" d="M230 0l2-204L168 0h-37L68-204 70 0H24v-248h70l56 185 57-185h69V0h-46" id="T"/><path fill="#fff" d="M147 0H94L2-248h55l64 206c17-72 42-137 63-206h54" id="U"/><g id="f"><use transform="matrix(0.04320987654320988,0,0,0.04320987654320988,0,0)" xlink:href="#T"/><use transform="matrix(0.04320987654320988,0,0,0.04320987654320988,12.919753086419755,0)" xlink:href="#K"/><use transform="matrix(0.04320987654320988,0,0,0.04320987654320988,17.240740740740744,0)" xlink:href="#Q"/><use transform="matrix(0.04320987654320988,0,0,0.04320987654320988,28.4320987654321,0)" xlink:href="#G"/><use transform="matrix(0.04320987654320988,0,0,0.04320987654320988,39.62345679012346,0)" xlink:href="#I"/><use transform="matrix(0.04320987654320988,0,0,0.04320987654320988,51.72222222222223,0)" xlink:href="#E"/><use transform="matrix(0.04320987654320988,0,0,0.04320987654320988,62.0925925925926,0)" xlink:href="#F"/><use transform="matrix(0.04320987654320988,0,0,0.04320987654320988,72.46296296296298,0)" xlink:href="#G"/><use transform="matrix(0.04320987654320988,0,0,0.04320987654320988,83.35185185185186,0)" xlink:href="#U"/><use transform="matrix(0.04320987654320988,0,0,0.04320987654320988,93.72222222222223,0)" xlink:href="#K"/><use transform="matrix(0.04320987654320988,0,0,0.04320987654320988,98.04320987654322,0)" xlink:href="#Q"/><use transform="matrix(0.04320987654320988,0,0,0.04320987654320988,109.23456790123458,0)" xlink:href="#F"/></g><path fill="#666" d="M25 0v-261h50V0H25" id="V"/><path fill="#666" d="M110-194c64 0 96 36 96 99 0 64-35 99-97 99-61 0-95-36-95-99 0-62 34-99 96-99zm-1 164c35 0 45-28 45-65 0-40-10-65-43-65-34 0-45 26-45 65 0 36 10 65 43 65" id="W"/><path fill="#666" d="M195-6C206 82 75 100 31 46c-4-6-6-13-8-21l49-6c3 16 16 24 34 25 40 0 42-37 40-79-11 22-30 35-61 35-53 0-70-43-70-97 0-56 18-96 73-97 30 0 46 14 59 34l2-30h47zm-90-29c32 0 41-27 41-63 0-35-9-62-40-62-32 0-39 29-40 63 0 36 9 62 39 62" id="X"/><path fill="#666" d="M25-224v-37h50v37H25zM25 0v-190h50V0H25" id="Y"/><path fill="#666" d="M135-194c87-1 58 113 63 194h-50c-7-57 23-157-34-157-59 0-34 97-39 157H25l-1-190h47c2 12-1 28 3 38 12-26 28-41 61-42" id="Z"/><g id="g"><use transform="matrix(0.04320987654320988,0,0,0.04320987654320988,0,0)" xlink:href="#V"/><use transform="matrix(0.04320987654320988,0,0,0.04320987654320988,4.320987654320988,0)" xlink:href="#W"/><use transform="matrix(0.04320987654320988,0,0,0.04320987654320988,13.783950617283953,0)" xlink:href="#X"/><use transform="matrix(0.04320987654320988,0,0,0.04320987654320988,23.246913580246915,0)" xlink:href="#Y"/><use transform="matrix(0.04320987654320988,0,0,0.04320987654320988,27.567901234567906,0)" xlink:href="#Z"/></g><path fill="#666" d="M135-150c-39-12-60 13-60 57V0H25l-1-190h47c2 13-1 29 3 40 6-28 27-53 61-41v41" id="aa"/><path fill="#666" d="M185-48c-13 30-37 53-82 52C43 2 14-33 14-96s30-98 90-98c62 0 83 45 84 108H66c0 31 8 55 39 56 18 0 30-7 34-22zm-45-69c5-46-57-63-70-21-2 6-4 13-4 21h74" id="ab"/><path fill="#666" d="M84 4C32 4 15-41 15-95c0-55 18-99 73-99 29 0 47 12 58 34l2-30h48l-1 265h-49V-32C136-9 114 4 84 4zm21-34c32 0 41-29 41-66 0-36-9-64-40-64-33 0-39 30-40 65 0 43 13 65 39 65" id="ac"/><path fill="#666" d="M85 4C-2 5 27-109 22-190h50c7 57-23 150 33 157 60-5 35-97 40-157h50l1 190h-47c-2-12 1-28-3-38-12 25-28 42-61 42" id="ad"/><path fill="#666" d="M137-138c1-29-70-34-71-4 15 46 118 7 119 86 1 83-164 76-172 9l43-7c4 19 20 25 44 25 33 8 57-30 24-41C81-84 22-81 20-136c-2-80 154-74 161-7" id="ae"/><path fill="#666" d="M115-3C79 11 28 4 28-45v-112H4v-33h27l15-45h31v45h36v33H77v99c-1 23 16 31 38 25v30" id="af"/><g id="h"><use transform="matrix(0.04320987654320988,0,0,0.04320987654320988,0,0)" xlink:href="#aa"/><use transform="matrix(0.04320987654320988,0,0,0.04320987654320988,6.049382716049383,0)" xlink:href="#ab"/><use transform="matrix(0.04320987654320988,0,0,0.04320987654320988,14.69135802469136,0)" xlink:href="#ac"/><use transform="matrix(0.04320987654320988,0,0,0.04320987654320988,24.154320987654323,0)" xlink:href="#ad"/><use transform="matrix(0.04320987654320988,0,0,0.04320987654320988,33.617283950617285,0)" xlink:href="#ab"/><use transform="matrix(0.04320987654320988,0,0,0.04320987654320988,42.25925925925926,0)" xlink:href="#ae"/><use transform="matrix(0.04320987654320988,0,0,0.04320987654320988,50.90123456790123,0)" xlink:href="#af"/></g><path fill="#666" d="M147 0H94L2-248h55l64 206c17-72 42-137 63-206h54" id="ag"/><path fill="#666" d="M133-34C117-15 103 5 69 4 32 3 11-16 11-54c-1-60 55-63 116-61 1-26-3-47-28-47-18 1-26 9-28 27l-52-2c7-38 36-58 82-57s74 22 75 68l1 82c-1 14 12 18 25 15v27c-30 8-71 5-69-32zm-48 3c29 0 43-24 42-57-32 0-66-3-65 30 0 17 8 27 23 27" id="ah"/><path fill="#666" d="M88-194c31-1 46 15 58 34l-1-101h50l1 261h-48c-2-10 0-23-3-31C134-8 116 4 84 4 32 4 16-41 15-95c0-56 19-97 73-99zm17 164c33 0 40-30 41-66 1-37-9-64-41-64s-38 30-39 65c0 43 13 65 39 65" id="ai"/><g id="i"><use transform="matrix(0.04320987654320988,0,0,0.04320987654320988,0,0)" xlink:href="#ag"/><use transform="matrix(0.04320987654320988,0,0,0.04320987654320988,9.506172839506174,0)" xlink:href="#ah"/><use transform="matrix(0.04320987654320988,0,0,0.04320987654320988,18.148148148148152,0)" xlink:href="#V"/><use transform="matrix(0.04320987654320988,0,0,0.04320987654320988,22.46913580246914,0)" xlink:href="#Y"/><use transform="matrix(0.04320987654320988,0,0,0.04320987654320988,26.790123456790127,0)" xlink:href="#ai"/><use transform="matrix(0.04320987654320988,0,0,0.04320987654320988,36.25308641975309,0)" xlink:href="#ah"/><use transform="matrix(0.04320987654320988,0,0,0.04320987654320988,44.89506172839506,0)" xlink:href="#af"/><use transform="matrix(0.04320987654320988,0,0,0.04320987654320988,50.037037037037045,0)" xlink:href="#ab"/></g><path fill="#666" d="M238-95c0 69-44 99-111 99C63 4 22-25 22-93v-155h51v151c-1 38 19 59 55 60 90 1 49-130 58-211h52v153" id="aj"/><g id="j"><use transform="matrix(0.04320987654320988,0,0,0.04320987654320988,0,0)" xlink:href="#aj"/><use transform="matrix(0.04320987654320988,0,0,0.04320987654320988,11.19135802469136,0)" xlink:href="#ae"/><use transform="matrix(0.04320987654320988,0,0,0.04320987654320988,19.833333333333336,0)" xlink:href="#ab"/><use transform="matrix(0.04320987654320988,0,0,0.04320987654320988,28.47530864197531,0)" xlink:href="#aa"/></g><path fill="#666" d="M20 75v-336h95v34H67V41h48v34H20" id="ak"/><path fill="#666" d="M240-174c0 40-23 61-54 70L253 0h-59l-57-94H76V0H24v-248c93 4 217-23 216 74zM76-134c48-2 112 12 112-38 0-48-66-32-112-35v73" id="al"/><path fill="#666" d="M4 75V41h49v-268H4v-34h96V75H4" id="am"/><g id="l"><use transform="matrix(0.04320987654320988,0,0,0.04320987654320988,0,0)" xlink:href="#ak"/><use transform="matrix(0.04320987654320988,0,0,0.04320987654320988,5.1419753086419755,0)" xlink:href="#ae"/><use transform="matrix(0.04320987654320988,0,0,0.04320987654320988,13.783950617283953,0)" xlink:href="#ab"/><use transform="matrix(0.04320987654320988,0,0,0.04320987654320988,22.425925925925934,0)" xlink:href="#Z"/><use transform="matrix(0.04320987654320988,0,0,0.04320987654320988,31.888888888888893,0)" xlink:href="#ai"/><use transform="matrix(0.04320987654320988,0,0,0.04320987654320988,41.351851851851855,0)" xlink:href="#al"/><use transform="matrix(0.04320987654320988,0,0,0.04320987654320988,52.543209876543216,0)" xlink:href="#ab"/><use transform="matrix(0.04320987654320988,0,0,0.04320987654320988,61.18518518518519,0)" xlink:href="#ac"/><use transform="matrix(0.04320987654320988,0,0,0.04320987654320988,70.64814814814815,0)" xlink:href="#ad"/><use transform="matrix(0.04320987654320988,0,0,0.04320987654320988,80.11111111111111,0)" xlink:href="#ab"/><use transform="matrix(0.04320987654320988,0,0,0.04320987654320988,88.75308641975309,0)" xlink:href="#ae"/><use transform="matrix(0.04320987654320988,0,0,0.04320987654320988,97.39506172839508,0)" xlink:href="#af"/><use transform="matrix(0.04320987654320988,0,0,0.04320987654320988,102.53703703703705,0)" xlink:href="#am"/></g><path fill="#666" d="M169-182c-1-43-94-46-97-3 18 66 151 10 154 114 3 95-165 93-204 36-6-8-10-19-12-30l50-8c3 46 112 56 116 5-17-69-150-10-154-114-4-87 153-88 188-35 5 8 8 18 10 28" id="an"/><path fill="#666" d="M230 0l2-204L168 0h-37L68-204 70 0H24v-248h70l56 185 57-185h69V0h-46" id="ao"/><g id="m"><use transform="matrix(0.04320987654320988,0,0,0.04320987654320988,0,0)" xlink:href="#an"/><use transform="matrix(0.04320987654320988,0,0,0.04320987654320988,10.370370370370372,0)" xlink:href="#ao"/><use transform="matrix(0.04320987654320988,0,0,0.04320987654320988,23.290123456790127,0)" xlink:href="#an"/></g><path fill="#666" d="M275 0h-61l-44-196L126 0H64L0-248h53L97-49l45-199h58l43 199 44-199h52" id="ap"/><path fill="#666" d="M114-157C55-157 80-60 75 0H25v-261h50l-1 109c12-26 28-41 61-42 86-1 58 113 63 194h-50c-7-57 23-157-34-157" id="aq"/><g id="n"><use transform="matrix(0.04320987654320988,0,0,0.04320987654320988,0,0)" xlink:href="#ap"/><use transform="matrix(0.04320987654320988,0,0,0.04320987654320988,14.51851851851852,0)" xlink:href="#Y"/><use transform="matrix(0.04320987654320988,0,0,0.04320987654320988,18.839506172839506,0)" xlink:href="#af"/><use transform="matrix(0.04320987654320988,0,0,0.04320987654320988,23.981481481481477,0)" xlink:href="#aq"/></g><path fill="#666" d="M136-208V0H84v-208H4v-40h212v40h-80" id="ar"/><path fill="#666" d="M147 0L96-86 75-71V0H25v-261h50v150l67-79h53l-66 74L201 0h-54" id="as"/><g id="o"><use transform="matrix(0.04320987654320988,0,0,0.04320987654320988,0,0)" xlink:href="#ar"/><use transform="matrix(0.04320987654320988,0,0,0.04320987654320988,8.296296296296298,0)" xlink:href="#W"/><use transform="matrix(0.04320987654320988,0,0,0.04320987654320988,17.75925925925926,0)" xlink:href="#as"/><use transform="matrix(0.04320987654320988,0,0,0.04320987654320988,26.401234567901234,0)" xlink:href="#ab"/><use transform="matrix(0.04320987654320988,0,0,0.04320987654320988,35.04320987654321,0)" xlink:href="#Z"/></g><path fill="#b2b2b2" d="M240-174c0 40-23 61-54 70L253 0h-59l-57-94H76V0H24v-248c93 4 217-23 216 74zM76-134c48-2 112 12 112-38 0-48-66-32-112-35v73" id="at"/><path fill="#b2b2b2" d="M185-48c-13 30-37 53-82 52C43 2 14-33 14-96s30-98 90-98c62 0 83 45 84 108H66c0 31 8 55 39 56 18 0 30-7 34-22zm-45-69c5-46-57-63-70-21-2 6-4 13-4 21h74" id="au"/><path fill="#b2b2b2" d="M84 4C32 4 15-41 15-95c0-55 18-99 73-99 29 0 47 12 58 34l2-30h48l-1 265h-49V-32C136-9 114 4 84 4zm21-34c32 0 41-29 41-66 0-36-9-64-40-64-33 0-39 30-40 65 0 43 13 65 39 65" id="av"/><path fill="#b2b2b2" d="M85 4C-2 5 27-109 22-190h50c7 57-23 150 33 157 60-5 35-97 40-157h50l1 190h-47c-2-12 1-28-3-38-12 25-28 42-61 42" id="aw"/><path fill="#b2b2b2" d="M137-138c1-29-70-34-71-4 15 46 118 7 119 86 1 83-164 76-172 9l43-7c4 19 20 25 44 25 33 8 57-30 24-41C81-84 22-81 20-136c-2-80 154-74 161-7" id="ax"/><path fill="#b2b2b2" d="M115-3C79 11 28 4 28-45v-112H4v-33h27l15-45h31v45h36v33H77v99c-1 23 16 31 38 25v30" id="ay"/><g id="p"><use transform="matrix(0.07407407407407408,0,0,0.07407407407407408,0,0)" xlink:href="#at"/><use transform="matrix(0.07407407407407408,0,0,0.07407407407407408,19.185185185185187,0)" xlink:href="#au"/><use transform="matrix(0.07407407407407408,0,0,0.07407407407407408,34,0)" xlink:href="#av"/><use transform="matrix(0.07407407407407408,0,0,0.07407407407407408,50.22222222222223,0)" xlink:href="#aw"/><use transform="matrix(0.07407407407407408,0,0,0.07407407407407408,66.44444444444446,0)" xlink:href="#au"/><use transform="matrix(0.07407407407407408,0,0,0.07407407407407408,81.25925925925927,0)" xlink:href="#ax"/><use transform="matrix(0.07407407407407408,0,0,0.07407407407407408,96.07407407407408,0)" xlink:href="#ay"/></g><path fill="#b2b2b2" d="M136-208V0H84v-208H4v-40h212v40h-80" id="az"/><path fill="#b2b2b2" d="M140-251c80 0 125 45 125 126S219 4 139 4C58 4 15-44 15-125s44-126 125-126zm-1 214c52 0 73-35 73-88 0-50-21-86-72-86-52 0-73 35-73 86s22 88 72 88" id="aA"/><path fill="#b2b2b2" d="M24-248c93 1 206-16 204 79-1 75-69 88-152 82V0H24v-248zm52 121c47 0 100 7 100-41 0-47-54-39-100-39v80" id="aB"/><g id="q"><use transform="matrix(0.07407407407407408,0,0,0.07407407407407408,0,0)" xlink:href="#az"/><use transform="matrix(0.07407407407407408,0,0,0.07407407407407408,15.703703703703706,0)" xlink:href="#aA"/><use transform="matrix(0.07407407407407408,0,0,0.07407407407407408,36.44444444444445,0)" xlink:href="#az"/><use transform="matrix(0.07407407407407408,0,0,0.07407407407407408,52.66666666666667,0)" xlink:href="#aB"/></g><path fill="#b2b2b2" d="M141-36C126-15 110 5 73 4 37 3 15-17 15-53c-1-64 63-63 125-63 3-35-9-54-41-54-24 1-41 7-42 31l-33-3c5-37 33-52 76-52 45 0 72 20 72 64v82c-1 20 7 32 28 27v20c-31 9-61-2-59-35zM48-53c0 20 12 33 32 33 41-3 63-29 60-74-43 2-92-5-92 41" id="aC"/><path fill="#b2b2b2" d="M85-194c31 0 48 13 60 33l-1-100h32l1 261h-30c-2-10 0-23-3-31C134-8 116 4 85 4 32 4 16-35 15-94c0-66 23-100 70-100zm9 24c-40 0-46 34-46 75 0 40 6 74 45 74 42 0 51-32 51-76 0-42-9-74-50-73" id="aD"/><path fill="#b2b2b2" d="M114-163C36-179 61-72 57 0H25l-1-190h30c1 12-1 29 2 39 6-27 23-49 58-41v29" id="aE"/><path fill="#b2b2b2" d="M24-231v-30h32v30H24zM24 0v-190h32V0H24" id="aF"/><path fill="#b2b2b2" d="M117-194c89-4 53 116 60 194h-32v-121c0-31-8-49-39-48C34-167 62-67 57 0H25l-1-190h30c1 10-1 24 2 32 11-22 29-35 61-36" id="aG"/><path fill="#b2b2b2" d="M100-194c62-1 85 37 85 99 1 63-27 99-86 99S16-35 15-95c0-66 28-99 85-99zM99-20c44 1 53-31 53-75 0-43-8-75-51-75s-53 32-53 75 10 74 51 75" id="aH"/><g id="r"><use transform="matrix(0.04320987654320988,0,0,0.04320987654320988,0,0)" xlink:href="#aC"/><use transform="matrix(0.04320987654320988,0,0,0.04320987654320988,8.641975308641976,0)" xlink:href="#aD"/><use transform="matrix(0.04320987654320988,0,0,0.04320987654320988,17.283950617283953,0)" xlink:href="#aE"/><use transform="matrix(0.04320987654320988,0,0,0.04320987654320988,22.425925925925927,0)" xlink:href="#aF"/><use transform="matrix(0.04320987654320988,0,0,0.04320987654320988,25.839506172839503,0)" xlink:href="#aC"/><use transform="matrix(0.04320987654320988,0,0,0.04320987654320988,34.48148148148148,0)" xlink:href="#aG"/><use transform="matrix(0.04320987654320988,0,0,0.04320987654320988,43.123456790123456,0)" xlink:href="#aH"/></g><path fill="#b2b2b2" d="M135-143c-3-34-86-38-87 0 15 53 115 12 119 90S17 21 10-45l28-5c4 36 97 45 98 0-10-56-113-15-118-90-4-57 82-63 122-42 12 7 21 19 24 35" id="aI"/><path fill="#b2b2b2" d="M59-47c-2 24 18 29 38 22v24C64 9 27 4 27-40v-127H5v-23h24l9-43h21v43h35v23H59v120" id="aJ"/><g id="s"><use transform="matrix(0.04320987654320988,0,0,0.04320987654320988,0,0)" xlink:href="#aI"/><use transform="matrix(0.04320987654320988,0,0,0.04320987654320988,7.777777777777779,0)" xlink:href="#aC"/><use transform="matrix(0.04320987654320988,0,0,0.04320987654320988,16.419753086419753,0)" xlink:href="#aG"/><use transform="matrix(0.04320987654320988,0,0,0.04320987654320988,25.061728395061728,0)" xlink:href="#aJ"/><use transform="matrix(0.04320987654320988,0,0,0.04320987654320988,29.382716049382715,0)" xlink:href="#aH"/><use transform="matrix(0.04320987654320988,0,0,0.04320987654320988,38.02469135802469,0)" xlink:href="#aI"/></g><path fill="#b2b2b2" d="M32 76v-337h29V76H32" id="aK"/><use transform="matrix(0.04320987654320988,0,0,0.04320987654320988,0,0)" xlink:href="#aK" id="t"/><path fill="#b2b2b2" d="M190 0L58-211 59 0H30v-248h39L202-35l-2-213h31V0h-41" id="aL"/><path fill="#b2b2b2" d="M108 0H70L1-190h34L89-25l56-165h34" id="aM"/><path fill="#b2b2b2" d="M100-194c63 0 86 42 84 106H49c0 40 14 67 53 68 26 1 43-12 49-29l28 8c-11 28-37 45-77 45C44 4 14-33 15-96c1-61 26-98 85-98zm52 81c6-60-76-77-97-28-3 7-6 17-6 28h103" id="aN"/><path fill="#b2b2b2" d="M210-169c-67 3-38 105-44 169h-31v-121c0-29-5-50-35-48C34-165 62-65 56 0H25l-1-190h30c1 10-1 24 2 32 10-44 99-50 107 0 11-21 27-35 58-36 85-2 47 119 55 194h-31v-121c0-29-5-49-35-48" id="aO"/><path fill="#b2b2b2" d="M115-194c53 0 69 39 70 98 0 66-23 100-70 100C84 3 66-7 56-30L54 0H23l1-261h32v101c10-23 28-34 59-34zm-8 174c40 0 45-34 45-75 0-40-5-75-45-74-42 0-51 32-51 76 0 43 10 73 51 73" id="aP"/><g id="u"><use transform="matrix(0.04320987654320988,0,0,0.04320987654320988,0,0)" xlink:href="#aL"/><use transform="matrix(0.04320987654320988,0,0,0.04320987654320988,11.19135802469136,0)" xlink:href="#aH"/><use transform="matrix(0.04320987654320988,0,0,0.04320987654320988,19.833333333333336,0)" xlink:href="#aM"/><use transform="matrix(0.04320987654320988,0,0,0.04320987654320988,27.611111111111114,0)" xlink:href="#aN"/><use transform="matrix(0.04320987654320988,0,0,0.04320987654320988,36.25308641975309,0)" xlink:href="#aO"/><use transform="matrix(0.04320987654320988,0,0,0.04320987654320988,49.17283950617284,0)" xlink:href="#aP"/><use transform="matrix(0.04320987654320988,0,0,0.04320987654320988,57.814814814814824,0)" xlink:href="#aN"/><use transform="matrix(0.04320987654320988,0,0,0.04320987654320988,66.4567901234568,0)" xlink:href="#aE"/></g><path fill="#b2b2b2" d="M54-142c48-35 137-8 131 61C196 18 31 33 14-55l32-4c7 23 22 37 52 37 35-1 51-22 54-58 4-55-73-65-99-34H22l8-134h141v27H59" id="aQ"/><path fill="#b2b2b2" d="M68-38c1 34 0 65-14 84H32c9-13 17-26 17-46H33v-38h35" id="aR"/><g id="v"><use transform="matrix(0.04320987654320988,0,0,0.04320987654320988,0,0)" xlink:href="#aQ"/><use transform="matrix(0.04320987654320988,0,0,0.04320987654320988,8.641975308641976,0)" xlink:href="#aR"/></g><path fill="#b2b2b2" d="M101-251c82-7 93 87 43 132L82-64C71-53 59-42 53-27h129V0H18c2-99 128-94 128-182 0-28-16-43-45-43s-46 15-49 41l-32-3c6-41 34-60 81-64" id="aS"/><path fill="#b2b2b2" d="M101-251c68 0 85 55 85 127S166 4 100 4C33 4 14-52 14-124c0-73 17-127 87-127zm-1 229c47 0 54-49 54-102s-4-102-53-102c-51 0-55 48-55 102 0 53 5 102 54 102" id="aT"/><path fill="#b2b2b2" d="M27 0v-27h64v-190l-56 39v-29l58-41h29v221h61V0H27" id="aU"/><path fill="#b2b2b2" d="M134-131c28 9 52 24 51 62-1 50-34 73-85 73S17-19 16-69c0-36 21-54 49-61-75-25-45-126 34-121 46 3 78 18 79 63 0 33-17 51-44 57zm-34-11c31 1 46-15 46-44 0-28-17-43-47-42-29 0-46 13-45 42 1 28 16 44 46 44zm1 122c35 0 51-18 51-52 0-30-18-46-53-46-33 0-51 17-51 47 0 34 19 51 53 51" id="aV"/><g id="w"><use transform="matrix(0.04320987654320988,0,0,0.04320987654320988,0,0)" xlink:href="#aS"/><use transform="matrix(0.04320987654320988,0,0,0.04320987654320988,8.641975308641976,0)" xlink:href="#aT"/><use transform="matrix(0.04320987654320988,0,0,0.04320987654320988,17.283950617283953,0)" xlink:href="#aU"/><use transform="matrix(0.04320987654320988,0,0,0.04320987654320988,25.925925925925927,0)" xlink:href="#aV"/></g><g id="x"><use transform="matrix(0.04320987654320988,0,0,0.04320987654320988,0,0)" xlink:href="#R"/><use transform="matrix(0.04320987654320988,0,0,0.04320987654320988,9.160493827160494,0)" xlink:href="#I"/><use transform="matrix(0.04320987654320988,0,0,0.04320987654320988,21.25925925925926,0)" xlink:href="#R"/><use transform="matrix(0.04320987654320988,0,0,0.04320987654320988,30.72222222222222,0)" xlink:href="#P"/></g><path fill="#fff" d="M24-248c120-7 223 5 221 122C244-46 201 0 124 0H24v-248zM76-40c74 7 117-18 117-86 0-67-45-88-117-82v168" id="aW"/><g id="y"><use transform="matrix(0.04320987654320988,0,0,0.04320987654320988,0,0)" xlink:href="#P"/><use transform="matrix(0.04320987654320988,0,0,0.04320987654320988,10.370370370370372,0)" xlink:href="#G"/><use transform="matrix(0.04320987654320988,0,0,0.04320987654320988,21.56172839506173,0)" xlink:href="#I"/><use transform="matrix(0.04320987654320988,0,0,0.04320987654320988,33.660493827160494,0)" xlink:href="#U"/><use transform="matrix(0.04320987654320988,0,0,0.04320987654320988,44.03086419753087,0)" xlink:href="#K"/><use transform="matrix(0.04320987654320988,0,0,0.04320987654320988,48.351851851851855,0)" xlink:href="#aW"/><use transform="matrix(0.04320987654320988,0,0,0.04320987654320988,59.543209876543216,0)" xlink:href="#F"/><use transform="matrix(0.04320987654320988,0,0,0.04320987654320988,69.91358024691358,0)" xlink:href="#G"/></g><g id="z"><use transform="matrix(0.04320987654320988,0,0,0.04320987654320988,0,0)" xlink:href="#al"/><use transform="matrix(0.04320987654320988,0,0,0.04320987654320988,11.19135802469136,0)" xlink:href="#ab"/><use transform="matrix(0.04320987654320988,0,0,0.04320987654320988,19.833333333333336,0)" xlink:href="#ac"/><use transform="matrix(0.04320987654320988,0,0,0.04320987654320988,29.296296296296298,0)" xlink:href="#ad"/><use transform="matrix(0.04320987654320988,0,0,0.04320987654320988,38.75925925925926,0)" xlink:href="#ab"/><use transform="matrix(0.04320987654320988,0,0,0.04320987654320988,47.40123456790123,0)" xlink:href="#ae"/><use transform="matrix(0.04320987654320988,0,0,0.04320987654320988,56.04320987654321,0)" xlink:href="#af"/></g><g id="A"><use transform="matrix(0.04320987654320988,0,0,0.04320987654320988,0,0)" xlink:href="#ag"/><use transform="matrix(0.04320987654320988,0,0,0.04320987654320988,9.506172839506174,0)" xlink:href="#ah"/><use transform="matrix(0.04320987654320988,0,0,0.04320987654320988,18.148148148148152,0)" xlink:href="#V"/><use transform="matrix(0.04320987654320988,0,0,0.04320987654320988,22.46913580246914,0)" xlink:href="#Y"/><use transform="matrix(0.04320987654320988,0,0,0.04320987654320988,26.790123456790127,0)" xlink:href="#ai"/><use transform="matrix(0.04320987654320988,0,0,0.04320987654320988,36.25308641975309,0)" xlink:href="#ah"/><use transform="matrix(0.04320987654320988,0,0,0.04320987654320988,44.89506172839506,0)" xlink:href="#af"/><use transform="matrix(0.04320987654320988,0,0,0.04320987654320988,50.037037037037045,0)" xlink:href="#Y"/><use transform="matrix(0.04320987654320988,0,0,0.04320987654320988,54.35802469135802,0)" xlink:href="#W"/><use transform="matrix(0.04320987654320988,0,0,0.04320987654320988,63.82098765432099,0)" xlink:href="#Z"/></g><g id="B"><use transform="matrix(0.04320987654320988,0,0,0.04320987654320988,0,0)" xlink:href="#an"/><use transform="matrix(0.04320987654320988,0,0,0.04320987654320988,10.370370370370372,0)" xlink:href="#ab"/><use transform="matrix(0.04320987654320988,0,0,0.04320987654320988,19.01234567901235,0)" xlink:href="#Z"/><use transform="matrix(0.04320987654320988,0,0,0.04320987654320988,28.47530864197531,0)" xlink:href="#ai"/></g><g id="C"><use transform="matrix(0.04320987654320988,0,0,0.04320987654320988,0,0)" xlink:href="#al"/><use transform="matrix(0.04320987654320988,0,0,0.04320987654320988,11.19135802469136,0)" xlink:href="#ab"/><use transform="matrix(0.04320987654320988,0,0,0.04320987654320988,19.833333333333336,0)" xlink:href="#ac"/><use transform="matrix(0.04320987654320988,0,0,0.04320987654320988,29.296296296296298,0)" xlink:href="#ad"/><use transform="matrix(0.04320987654320988,0,0,0.04320987654320988,38.75925925925926,0)" xlink:href="#ab"/><use transform="matrix(0.04320987654320988,0,0,0.04320987654320988,47.40123456790123,0)" xlink:href="#ae"/><use transform="matrix(0.04320987654320988,0,0,0.04320987654320988,56.04320987654321,0)" xlink:href="#af"/></g></defs></g></svg>